<svg width="151" height="40" viewBox="0 0 151 40" fill="none" xmlns="http://www.w3.org/2000/svg">
<path fill-rule="evenodd" clip-rule="evenodd" d="M25.6248 23.2589C24.9674 23.5893 24.1165 23.895 23.1907 23.8236C22.0158 23.733 20.9695 23.3154 20.2275 22.4242C19.5743 21.6397 19.3738 20.7176 19.2714 20.2336C19.2414 20.0918 19.2168 19.9726 19.1958 19.871C19.1212 19.5093 19.1446 19.3412 19.0289 19.2299C18.9374 19.1419 18.462 19.0724 17.7446 19.3583C16.9809 19.6627 15.9499 20.3217 14.5892 21.5286C11.8706 23.9402 8.27752 28.1348 3.40334 34.5775L0.5 31.6411C4.84923 26.3838 8.79492 21.1236 11.845 18.418C13.3688 17.0663 14.8154 16.0567 16.215 15.4989C17.6608 14.9227 19.1553 14.7957 20.5836 15.3816C22.7672 16.2774 23.1397 18.3582 23.2861 19.1755C23.2999 19.2529 23.3117 19.3189 23.3229 19.3716C23.3516 19.5075 23.3753 19.6619 23.4072 19.6826C23.4664 19.7209 23.5888 19.6367 23.769 19.5461C24.0939 19.3828 24.5234 19.0991 25.0564 18.6693C26.1215 17.8106 27.3775 16.5518 28.7379 15.0633C30.0884 13.5857 31.4853 11.9445 32.8367 10.3479C32.9558 10.2072 33.0746 10.0668 33.1931 9.92676C34.406 8.49292 35.582 7.10283 36.6082 5.96973L39.6743 8.76182C38.698 9.83971 37.5687 11.1746 36.3417 12.6248C36.2268 12.7607 36.111 12.8975 35.9944 13.0353C34.6463 14.628 33.202 16.3258 31.7913 17.8693C30.3906 19.402 28.9657 20.8465 27.6517 21.9059C26.9952 22.4352 26.3107 22.9142 25.6248 23.2589ZM23.2575 19.642C23.2575 19.642 23.26 19.6427 23.2642 19.6445C23.2595 19.643 23.2575 19.642 23.2575 19.642Z" fill="#36B0FD"/>
<path fill-rule="evenodd" clip-rule="evenodd" d="M35.0719 17.175L35.5934 17.8039C36.4739 18.6868 36.4739 19.4382 35.5934 20.3211L22.745 33.2048C21.8645 34.0877 21.1153 34.0877 20.2348 33.2048L12.9972 25.9327C12.1631 26.8442 11.2571 27.8877 10.2717 29.0731L17.7246 36.561C19.8041 38.6463 23.1757 38.6463 25.2553 36.561L38.9404 22.8382C41.02 20.7529 41.02 17.3721 38.9404 15.2868L37.7793 14.0059C37.69 14.1115 37.6 14.2178 37.5096 14.3246C36.728 15.2481 35.9058 16.2167 35.0719 17.175Z" fill="#F2F7FF"/>
<path fill-rule="evenodd" clip-rule="evenodd" d="M29.8608 10.7759C29.637 11.0259 29.4275 11.2619 29.2455 11.4715L22.7448 4.92014C22.0118 4.18516 21.0127 4.13989 20.2345 4.92014L7.38615 17.8038C6.53295 18.6594 6.5065 19.3914 7.3068 20.2392C6.59686 21.0449 5.86922 21.9067 5.13001 22.8002C4.96637 22.998 4.8016 23.1981 4.63577 23.4002L4.03916 22.8381C1.9596 20.7529 1.9596 17.372 4.03916 15.2867L17.7243 1.56395C19.8039 -0.521318 23.1755 -0.521316 25.255 1.56395L31.965 8.29764C31.8745 8.4046 31.7839 8.51171 31.6932 8.61887L31.6718 8.64421C31.5552 8.78205 31.4384 8.92007 31.3214 9.05828C30.8361 9.63164 30.3481 10.207 29.8608 10.7759Z" fill="#00C485"/>
<path d="M64.4741 17.4655H54.4249L52.5078 22.1271H47.375L57.0222 0.372927H61.9695L71.6476 22.1271H66.3911L64.4741 17.4655ZM62.8971 13.643L59.4649 5.31423L56.0328 13.643H62.8971Z" fill="#F2F7FF"/>
<path d="M86.1378 22.1271L81.9635 16.067H81.7162H77.3564V22.1271H72.3472V0.372927H81.7162C83.6332 0.372927 85.2926 0.69406 86.6944 1.33633C88.1167 1.97859 89.2092 2.89019 89.972 4.07113C90.7347 5.25207 91.116 6.65055 91.116 8.26658C91.116 9.8826 90.7243 11.2811 89.941 12.462C89.1783 13.6222 88.0858 14.5131 86.6634 15.1347L91.518 22.1271H86.1378ZM86.045 8.26658C86.045 7.0442 85.6534 6.11188 84.8701 5.46962C84.0867 4.80663 82.9427 4.47514 81.4379 4.47514H77.3564V12.058H81.4379C82.9427 12.058 84.0867 11.7265 84.8701 11.0635C85.6534 10.4006 86.045 9.46824 86.045 8.26658Z" fill="#F2F7FF"/>
<path d="M103.564 22.5C101.317 22.5 99.2863 22.0131 97.4723 21.0394C95.6789 20.0656 94.2669 18.7293 93.2362 17.0304C92.2261 15.3108 91.7211 13.384 91.7211 11.25C91.7211 9.11602 92.2261 7.19959 93.2362 5.50069C94.2669 3.78108 95.6789 2.43439 97.4723 1.46064C99.2863 0.486879 101.317 0 103.564 0C105.811 0 107.831 0.486879 109.624 1.46064C111.417 2.43439 112.83 3.78108 113.86 5.50069C114.891 7.19959 115.406 9.11602 115.406 11.25C115.406 13.384 114.891 15.3108 113.86 17.0304C112.83 18.7293 111.417 20.0656 109.624 21.0394C107.831 22.0131 105.811 22.5 103.564 22.5ZM103.564 18.2113C104.842 18.2113 105.996 17.9213 107.027 17.3412C108.057 16.7403 108.861 15.9116 109.439 14.855C110.036 13.7983 110.335 12.5967 110.335 11.25C110.335 9.90332 110.036 8.70166 109.439 7.64503C108.861 6.5884 108.057 5.77003 107.027 5.18992C105.996 4.58909 104.842 4.28868 103.564 4.28868C102.286 4.28868 101.131 4.58909 100.101 5.18992C99.0699 5.77003 98.2556 6.5884 97.6578 7.64503C97.0806 8.70166 96.7921 9.90332 96.7921 11.25C96.7921 12.5967 97.0806 13.7983 97.6578 14.855C98.2556 15.9116 99.0699 16.7403 100.101 17.3412C101.131 17.9213 102.286 18.2113 103.564 18.2113Z" fill="#F2F7FF"/>
<path d="M125.25 14.4199V22.1271H120.24V14.3577L111.861 0.372927H117.179L122.962 10.038L128.744 0.372927H133.66L125.25 14.4199Z" fill="#F2F7FF"/>
<path d="M143.326 17.4655H133.277L131.36 22.1271H126.227L135.875 0.372927H140.822L150.5 22.1271H145.244L143.326 17.4655ZM141.749 13.643L138.317 5.31423L134.885 13.643H141.749Z" fill="#F2F7FF"/>
<g opacity="0.5">
<path d="M56.8352 31.3762C57.3234 31.3762 57.7544 31.4748 58.1281 31.6719C58.5018 31.8691 58.7917 32.1688 58.9976 32.571C59.2112 32.9732 59.318 33.4819 59.318 34.097V37.7051H58.2196V34.2271C58.2196 33.6199 58.0823 33.1625 57.8077 32.8549C57.5332 32.5473 57.148 32.3935 56.6522 32.3935C56.2861 32.3935 55.9657 32.4724 55.6911 32.6301C55.4165 32.7879 55.203 33.0205 55.0504 33.3281C54.9055 33.6356 54.833 34.0181 54.833 34.4756V37.7051H53.7347V34.2271C53.7347 33.6199 53.5974 33.1625 53.3228 32.8549C53.0558 32.5473 52.6707 32.3935 52.1673 32.3935C51.8088 32.3935 51.4922 32.4724 51.2176 32.6301C50.943 32.7879 50.7295 33.0205 50.5769 33.3281C50.4244 33.6356 50.3481 34.0181 50.3481 34.4756V37.7051H49.2498V31.4353H50.3023V33.1033L50.1307 32.6774C50.3214 32.2674 50.6151 31.948 51.0117 31.7192C51.4083 31.4905 51.8698 31.3762 52.3961 31.3762C52.9758 31.3762 53.4754 31.526 53.8949 31.8257C54.3144 32.1175 54.589 32.5631 54.7186 33.1625L54.2724 32.9732C54.4555 32.4921 54.7758 32.1057 55.2335 31.8139C55.6911 31.5221 56.2251 31.3762 56.8352 31.3762Z" fill="#F2F7FF"/>
<path d="M65.904 37.7051V36.3801L65.8468 36.1317V33.8722C65.8468 33.3912 65.7095 33.0205 65.4349 32.7603C65.1679 32.4921 64.7637 32.358 64.2221 32.358C63.8636 32.358 63.5128 32.4211 63.1695 32.5473C62.8263 32.6656 62.5365 32.8273 62.3 33.0323L61.8424 32.1806C62.1551 31.9203 62.5288 31.7232 62.9636 31.5891C63.406 31.4472 63.8674 31.3762 64.348 31.3762C65.1794 31.3762 65.8201 31.5852 66.2701 32.0032C66.7201 32.4211 66.9451 33.0599 66.9451 33.9196V37.7051H65.904ZM63.9132 37.776C63.4632 37.776 63.0666 37.6972 62.7233 37.5394C62.3877 37.3817 62.1284 37.1648 61.9453 36.8888C61.7623 36.6049 61.6707 36.2855 61.6707 35.9306C61.6707 35.5915 61.747 35.2839 61.8996 35.0079C62.0597 34.7319 62.3153 34.511 62.6661 34.3454C63.0246 34.1798 63.5051 34.097 64.1077 34.097H66.0298V34.9133H64.1535C63.6043 34.9133 63.2344 35.0079 63.0437 35.1972C62.853 35.3864 62.7577 35.6151 62.7577 35.8833C62.7577 36.1909 62.8759 36.4393 63.1123 36.6286C63.3488 36.8099 63.6768 36.9006 64.0963 36.9006C64.5082 36.9006 64.8666 36.806 65.1717 36.6167C65.4845 36.4274 65.7095 36.1514 65.8468 35.7886L66.0642 36.5694C65.9192 36.9401 65.6637 37.2358 65.2976 37.4566C64.9315 37.6696 64.47 37.776 63.9132 37.776Z" fill="#F2F7FF"/>
<path d="M70.671 36.1909L70.6939 34.7358L74.1834 31.4353H75.5106L72.8334 34.1562L72.2384 34.6767L70.671 36.1909ZM69.7786 37.7051V28.9274H70.8769V37.7051H69.7786ZM74.4123 37.7051L72.0325 34.653L72.7419 33.7421L75.7623 37.7051H74.4123Z" fill="#F2F7FF"/>
<path d="M80.084 37.776C79.4356 37.776 78.8636 37.638 78.3678 37.362C77.8796 37.086 77.4983 36.7074 77.2237 36.2263C76.9567 35.7453 76.8232 35.1932 76.8232 34.5702C76.8232 33.9472 76.9529 33.3951 77.2122 32.914C77.4792 32.433 77.8415 32.0584 78.2991 31.7902C78.7644 31.5142 79.2869 31.3762 79.8666 31.3762C80.4539 31.3762 80.9726 31.5103 81.4226 31.7784C81.8726 32.0465 82.2234 32.4251 82.4752 32.914C82.7345 33.3951 82.8642 33.959 82.8642 34.6057C82.8642 34.653 82.8603 34.7082 82.8527 34.7713C82.8527 34.8344 82.8489 34.8935 82.8413 34.9487H77.6813V34.1325H82.2692L81.823 34.4164C81.8306 34.0142 81.7505 33.6554 81.5827 33.3399C81.4149 33.0244 81.1823 32.78 80.8848 32.6065C80.595 32.4251 80.2556 32.3344 79.8666 32.3344C79.4852 32.3344 79.1458 32.4251 78.8483 32.6065C78.5508 32.78 78.3182 33.0284 78.1504 33.3517C77.9826 33.6672 77.8987 34.03 77.8987 34.4401V34.6293C77.8987 35.0473 77.9902 35.4219 78.1733 35.7532C78.364 36.0765 78.6271 36.3289 78.9627 36.5103C79.2983 36.6916 79.6835 36.7823 80.1183 36.7823C80.4768 36.7823 80.8009 36.7192 81.0908 36.5931C81.3882 36.4669 81.6476 36.2776 81.8688 36.0252L82.4752 36.7587C82.2006 37.0899 81.8573 37.3423 81.4455 37.5158C81.0412 37.6893 80.5874 37.776 80.084 37.776Z" fill="#F2F7FF"/>
<path d="M86.9293 37.776C86.4258 37.776 85.9453 37.7051 85.4877 37.5631C85.0377 37.4211 84.683 37.2476 84.4236 37.0426L84.8813 36.1435C85.1406 36.3249 85.461 36.4787 85.8423 36.6049C86.2237 36.7311 86.6127 36.7942 87.0093 36.7942C87.5204 36.7942 87.8865 36.7192 88.1077 36.5694C88.3365 36.4196 88.4509 36.2106 88.4509 35.9424C88.4509 35.7453 88.3823 35.5915 88.245 35.4811C88.1077 35.3707 87.9246 35.2879 87.6958 35.2327C87.4746 35.1774 87.2267 35.1301 86.9521 35.0907C86.6775 35.0434 86.403 34.9882 86.1284 34.9251C85.8538 34.8541 85.6021 34.7595 85.3733 34.6412C85.1444 34.515 84.9614 34.3454 84.8241 34.1325C84.6868 33.9117 84.6181 33.6199 84.6181 33.2571C84.6181 32.8786 84.7211 32.5473 84.9271 32.2634C85.133 31.9795 85.4228 31.7626 85.7966 31.6128C86.178 31.455 86.628 31.3762 87.1466 31.3762C87.5433 31.3762 87.9437 31.4274 88.348 31.53C88.7598 31.6246 89.0954 31.7626 89.3548 31.944L88.8857 32.8431C88.6111 32.6538 88.3251 32.5237 88.0276 32.4527C87.7301 32.3817 87.4327 32.3462 87.1352 32.3462C86.6547 32.3462 86.2962 32.429 86.0597 32.5946C85.8233 32.7524 85.7051 32.9574 85.7051 33.2098C85.7051 33.4227 85.7737 33.5883 85.911 33.7066C86.0559 33.817 86.239 33.9038 86.4602 33.9669C86.689 34.03 86.9407 34.0852 87.2153 34.1325C87.4899 34.1719 87.7645 34.2271 88.039 34.2981C88.3136 34.3612 88.5615 34.4519 88.7827 34.5702C89.0115 34.6885 89.1946 34.8541 89.3319 35.067C89.4768 35.28 89.5493 35.5639 89.5493 35.9188C89.5493 36.2973 89.4425 36.6246 89.2289 36.9006C89.0154 37.1767 88.7141 37.3935 88.3251 37.5513C87.9361 37.7011 87.4708 37.776 86.9293 37.776Z" fill="#F2F7FF"/>
<path d="M95.5963 37.7051V31.4353H96.6946V37.7051H95.5963ZM96.1455 30.2287C95.9319 30.2287 95.7527 30.1577 95.6077 30.0158C95.4704 29.8738 95.4018 29.7003 95.4018 29.4953C95.4018 29.2823 95.4704 29.1049 95.6077 28.9629C95.7527 28.821 95.9319 28.75 96.1455 28.75C96.359 28.75 96.5345 28.821 96.6718 28.9629C96.8167 29.097 96.8891 29.2666 96.8891 29.4716C96.8891 29.6845 96.8205 29.8659 96.6832 30.0158C96.5459 30.1577 96.3667 30.2287 96.1455 30.2287Z" fill="#F2F7FF"/>
<path d="M101.675 37.776C101.065 37.776 100.592 37.6065 100.256 37.2674C99.9206 36.9282 99.7528 36.4432 99.7528 35.8123V30.0631H100.851V35.765C100.851 36.1041 100.931 36.3644 101.091 36.5457C101.259 36.7271 101.496 36.8178 101.801 36.8178C102.144 36.8178 102.43 36.7192 102.659 36.5221L103.002 37.3383C102.834 37.4882 102.632 37.5986 102.396 37.6696C102.167 37.7405 101.927 37.776 101.675 37.776ZM98.7231 32.3699V31.4353H102.59V32.3699H98.7231Z" fill="#F2F7FF"/>
<path d="M110.743 37.776C110.24 37.776 109.759 37.7051 109.302 37.5631C108.852 37.4211 108.497 37.2476 108.238 37.0426L108.695 36.1435C108.955 36.3249 109.275 36.4787 109.657 36.6049C110.038 36.7311 110.427 36.7942 110.824 36.7942C111.335 36.7942 111.701 36.7192 111.922 36.5694C112.151 36.4196 112.265 36.2106 112.265 35.9424C112.265 35.7453 112.196 35.5915 112.059 35.4811C111.922 35.3707 111.739 35.2879 111.51 35.2327C111.289 35.1774 111.041 35.1301 110.766 35.0907C110.492 35.0434 110.217 34.9882 109.943 34.9251C109.668 34.8541 109.416 34.7595 109.187 34.6412C108.959 34.515 108.776 34.3454 108.638 34.1325C108.501 33.9117 108.432 33.6199 108.432 33.2571C108.432 32.8786 108.535 32.5473 108.741 32.2634C108.947 31.9795 109.237 31.7626 109.611 31.6128C109.992 31.455 110.442 31.3762 110.961 31.3762C111.357 31.3762 111.758 31.4274 112.162 31.53C112.574 31.6246 112.91 31.7626 113.169 31.944L112.7 32.8431C112.425 32.6538 112.139 32.5237 111.842 32.4527C111.544 32.3817 111.247 32.3462 110.949 32.3462C110.469 32.3462 110.11 32.429 109.874 32.5946C109.637 32.7524 109.519 32.9574 109.519 33.2098C109.519 33.4227 109.588 33.5883 109.725 33.7066C109.87 33.817 110.053 33.9038 110.274 33.9669C110.503 34.03 110.755 34.0852 111.029 34.1325C111.304 34.1719 111.579 34.2271 111.853 34.2981C112.128 34.3612 112.376 34.4519 112.597 34.5702C112.826 34.6885 113.009 34.8541 113.146 35.067C113.291 35.28 113.363 35.5639 113.363 35.9188C113.363 36.2973 113.257 36.6246 113.043 36.9006C112.83 37.1767 112.528 37.3935 112.139 37.5513C111.75 37.7011 111.285 37.776 110.743 37.776Z" fill="#F2F7FF"/>
<path d="M115.537 37.7051V31.4353H116.635V37.7051H115.537ZM116.086 30.2287C115.873 30.2287 115.693 30.1577 115.548 30.0158C115.411 29.8738 115.342 29.7003 115.342 29.4953C115.342 29.2823 115.411 29.1049 115.548 28.9629C115.693 28.821 115.873 28.75 116.086 28.75C116.3 28.75 116.475 28.821 116.612 28.9629C116.757 29.097 116.83 29.2666 116.83 29.4716C116.83 29.6845 116.761 29.8659 116.624 30.0158C116.487 30.1577 116.307 30.2287 116.086 30.2287Z" fill="#F2F7FF"/>
<path d="M127.119 31.3762C127.607 31.3762 128.038 31.4748 128.412 31.6719C128.785 31.8691 129.075 32.1688 129.281 32.571C129.495 32.9732 129.602 33.4819 129.602 34.097V37.7051H128.503V34.2271C128.503 33.6199 128.366 33.1625 128.091 32.8549C127.817 32.5473 127.432 32.3935 126.936 32.3935C126.57 32.3935 126.249 32.4724 125.975 32.6301C125.7 32.7879 125.487 33.0205 125.334 33.3281C125.189 33.6356 125.117 34.0181 125.117 34.4756V37.7051H124.018V34.2271C124.018 33.6199 123.881 33.1625 123.606 32.8549C123.339 32.5473 122.954 32.3935 122.451 32.3935C122.092 32.3935 121.776 32.4724 121.501 32.6301C121.227 32.7879 121.013 33.0205 120.861 33.3281C120.708 33.6356 120.632 34.0181 120.632 34.4756V37.7051H119.533V31.4353H120.586V33.1033L120.414 32.6774C120.605 32.2674 120.899 31.948 121.295 31.7192C121.692 31.4905 122.153 31.3762 122.68 31.3762C123.259 31.3762 123.759 31.526 124.178 31.8257C124.598 32.1175 124.873 32.5631 125.002 33.1625L124.556 32.9732C124.739 32.4921 125.059 32.1057 125.517 31.8139C125.975 31.5221 126.509 31.3762 127.119 31.3762Z" fill="#F2F7FF"/>
<path d="M135.638 37.776C135.135 37.776 134.674 37.6577 134.254 37.4211C133.842 37.1767 133.51 36.8178 133.259 36.3446C133.015 35.8715 132.893 35.28 132.893 34.5702C132.893 33.8604 133.011 33.2689 133.247 32.7957C133.491 32.3226 133.819 31.9677 134.231 31.7311C134.651 31.4945 135.12 31.3762 135.638 31.3762C136.233 31.3762 136.76 31.5103 137.217 31.7784C137.675 32.0465 138.037 32.4211 138.304 32.9022C138.571 33.3754 138.705 33.9314 138.705 34.5702C138.705 35.209 138.571 35.7689 138.304 36.25C138.037 36.7311 137.675 37.1057 137.217 37.3738C136.76 37.642 136.233 37.776 135.638 37.776ZM132.423 40V31.4353H133.476V33.127L133.407 34.582L133.522 36.0371V40H132.423ZM135.547 36.7823C135.936 36.7823 136.283 36.6916 136.588 36.5103C136.901 36.3289 137.145 36.0726 137.32 35.7413C137.503 35.4022 137.595 35.0118 137.595 34.5702C137.595 34.1207 137.503 33.7342 137.32 33.4109C137.145 33.0797 136.901 32.8233 136.588 32.642C136.283 32.4606 135.936 32.3699 135.547 32.3699C135.165 32.3699 134.818 32.4606 134.506 32.642C134.201 32.8233 133.957 33.0797 133.773 33.4109C133.598 33.7342 133.51 34.1207 133.51 34.5702C133.51 35.0118 133.598 35.4022 133.773 35.7413C133.957 36.0726 134.201 36.3289 134.506 36.5103C134.818 36.6916 135.165 36.7823 135.547 36.7823Z" fill="#F2F7FF"/>
<path d="M141.023 37.7051V28.9274H142.121V37.7051H141.023Z" fill="#F2F7FF"/>
<path d="M147.72 37.776C147.071 37.776 146.499 37.638 146.003 37.362C145.515 37.086 145.134 36.7074 144.859 36.2263C144.592 35.7453 144.459 35.1932 144.459 34.5702C144.459 33.9472 144.588 33.3951 144.848 32.914C145.115 32.433 145.477 32.0584 145.935 31.7902C146.4 31.5142 146.922 31.3762 147.502 31.3762C148.089 31.3762 148.608 31.5103 149.058 31.7784C149.508 32.0465 149.859 32.4251 150.111 32.914C150.37 33.3951 150.5 33.959 150.5 34.6057C150.5 34.653 150.496 34.7082 150.488 34.7713C150.488 34.8344 150.484 34.8935 150.477 34.9487H145.317V34.1325H149.905L149.459 34.4164C149.466 34.0142 149.386 33.6554 149.218 33.3399C149.051 33.0244 148.818 32.78 148.52 32.6065C148.231 32.4251 147.891 32.3344 147.502 32.3344C147.121 32.3344 146.781 32.4251 146.484 32.6065C146.186 32.78 145.954 33.0284 145.786 33.3517C145.618 33.6672 145.534 34.03 145.534 34.4401V34.6293C145.534 35.0473 145.626 35.4219 145.809 35.7532C146 36.0765 146.263 36.3289 146.598 36.5103C146.934 36.6916 147.319 36.7823 147.754 36.7823C148.112 36.7823 148.437 36.7192 148.726 36.5931C149.024 36.4669 149.283 36.2776 149.504 36.0252L150.111 36.7587C149.836 37.0899 149.493 37.3423 149.081 37.5158C148.677 37.6893 148.223 37.776 147.72 37.776Z" fill="#F2F7FF"/>
</g>
</svg>
