<svg width="25" height="24" viewBox="0 0 25 24" fill="none" xmlns="http://www.w3.org/2000/svg">
<path d="M10.6528 5.55559C10.7037 5.65925 10.7373 5.77027 10.7524 5.8844L11.0308 10.0243L11.169 12.1051C11.1705 12.3191 11.204 12.5317 11.2687 12.7361C11.4356 13.1326 11.8372 13.3846 12.2741 13.3671L18.9313 12.9316C19.2196 12.9269 19.498 13.0347 19.7052 13.2313C19.8779 13.3952 19.9894 13.6096 20.0246 13.8402L20.0364 13.9802C19.7609 17.795 16.9592 20.9767 13.1524 21.7981C9.34555 22.6194 5.44186 20.8844 3.56071 17.535C3.01839 16.5619 2.67965 15.4923 2.56438 14.389C2.51623 14.0624 2.49503 13.7326 2.50098 13.4026C2.49503 9.31279 5.40747 5.77702 9.48433 4.92463C9.97501 4.84822 10.456 5.10798 10.6528 5.55559Z" fill="#677389"/>
<path opacity="0.4" d="M13.37 2.00082C17.9299 2.11683 21.7623 5.39579 22.5 9.81229L22.493 9.84488L22.4728 9.89227L22.4756 10.0224C22.4652 10.1947 22.3986 10.3605 22.284 10.4945C22.1645 10.634 22.0013 10.729 21.8216 10.7659L21.712 10.7809L14.0312 11.2786C13.7757 11.3038 13.5213 11.2214 13.3314 11.052C13.173 10.9107 13.0718 10.7201 13.0432 10.5147L12.5277 2.84506C12.5187 2.81913 12.5187 2.79102 12.5277 2.76508C12.5347 2.55367 12.6278 2.35384 12.7861 2.21023C12.9443 2.06662 13.1547 1.9912 13.37 2.00082Z" fill="#677389"/>
</svg>
