<svg width="151" height="40" viewBox="0 0 151 40" fill="none" xmlns="http://www.w3.org/2000/svg">
<path fill-rule="evenodd" clip-rule="evenodd" d="M25.6248 23.2592C24.9674 23.5896 24.1165 23.8953 23.1907 23.8239C22.0158 23.7333 20.9695 23.3156 20.2275 22.4245C19.5743 21.64 19.3738 20.7179 19.2714 20.2339C19.2414 20.092 19.2168 19.9728 19.1958 19.8712C19.1212 19.5096 19.1446 19.3414 19.0289 19.2301C18.9374 19.1422 18.462 19.0727 17.7446 19.3586C16.9809 19.6629 15.9499 20.3219 14.5892 21.5289C11.8706 23.9404 8.27752 28.1351 3.40334 34.5778L0.5 31.6414C4.84923 26.384 8.79492 21.1238 11.845 18.4182C13.3688 17.0666 14.8154 16.0569 16.215 15.4991C17.6608 14.9229 19.1553 14.7959 20.5836 15.3818C22.7672 16.2776 23.1397 18.3585 23.2861 19.1758C23.2999 19.2531 23.3117 19.3192 23.3229 19.3718C23.3516 19.5077 23.3753 19.6621 23.4072 19.6828C23.4664 19.7211 23.5888 19.6369 23.769 19.5464C24.0939 19.3831 24.5234 19.0994 25.0564 18.6696C26.1215 17.8109 27.3775 16.5521 28.7379 15.0636C30.0884 13.5859 31.4853 11.9448 32.8367 10.3481C32.9558 10.2075 33.0746 10.067 33.1931 9.927C34.406 8.49316 35.582 7.10307 36.6082 5.96997L39.6743 8.76207C38.698 9.83996 37.5687 11.1749 36.3417 12.6251C36.2268 12.7609 36.111 12.8978 35.9944 13.0356C34.6463 14.6282 33.202 16.326 31.7913 17.8695C30.3906 19.4022 28.9657 20.8468 27.6517 21.9062C26.9952 22.4354 26.3107 22.9145 25.6248 23.2592ZM23.2575 19.6422C23.2575 19.6422 23.26 19.6429 23.2642 19.6448C23.2595 19.6432 23.2575 19.6422 23.2575 19.6422Z" fill="#36B0FD"/>
<path fill-rule="evenodd" clip-rule="evenodd" d="M35.0719 17.175L35.5934 17.8039C36.4739 18.6868 36.4739 19.4382 35.5934 20.3211L22.745 33.2048C21.8645 34.0877 21.1153 34.0877 20.2348 33.2048L12.9972 25.9327C12.1631 26.8442 11.2571 27.8877 10.2717 29.0731L17.7246 36.561C19.8041 38.6463 23.1757 38.6463 25.2553 36.561L38.9404 22.8382C41.02 20.7529 41.02 17.3721 38.9404 15.2868L37.7793 14.0059C37.69 14.1115 37.6 14.2178 37.5096 14.3246C36.728 15.2481 35.9058 16.2167 35.0719 17.175Z" fill="white"/>
<path fill-rule="evenodd" clip-rule="evenodd" d="M29.8608 10.7759C29.637 11.0259 29.4275 11.2619 29.2455 11.4715L22.7448 4.92014C22.0118 4.18516 21.0127 4.13989 20.2345 4.92014L7.38615 17.8038C6.53295 18.6594 6.5065 19.3914 7.3068 20.2392C6.59686 21.0449 5.86922 21.9067 5.13001 22.8002C4.96637 22.998 4.8016 23.1981 4.63577 23.4002L4.03916 22.8381C1.9596 20.7529 1.9596 17.372 4.03916 15.2867L17.7243 1.56395C19.8039 -0.521318 23.1755 -0.521316 25.255 1.56395L31.965 8.29764C31.8745 8.4046 31.7839 8.51171 31.6932 8.61887L31.6718 8.64421C31.5552 8.78205 31.4384 8.92007 31.3214 9.05828C30.8361 9.63164 30.3481 10.207 29.8608 10.7759Z" fill="#00C485"/>
<path d="M64.4741 17.4655H54.4249L52.5078 22.1271H47.375L57.0222 0.372927H61.9695L71.6476 22.1271H66.3911L64.4741 17.4655ZM62.8971 13.643L59.4649 5.31423L56.0328 13.643H62.8971Z" fill="white"/>
<path d="M86.1378 22.1271L81.9635 16.067H81.7162H77.3564V22.1271H72.3472V0.372927H81.7162C83.6332 0.372927 85.2926 0.69406 86.6944 1.33633C88.1167 1.97859 89.2092 2.89019 89.972 4.07113C90.7347 5.25207 91.116 6.65055 91.116 8.26658C91.116 9.8826 90.7243 11.2811 89.941 12.462C89.1783 13.6222 88.0858 14.5131 86.6634 15.1347L91.518 22.1271H86.1378ZM86.045 8.26658C86.045 7.0442 85.6534 6.11188 84.8701 5.46962C84.0867 4.80663 82.9427 4.47514 81.4379 4.47514H77.3564V12.058H81.4379C82.9427 12.058 84.0867 11.7265 84.8701 11.0635C85.6534 10.4006 86.045 9.46824 86.045 8.26658Z" fill="white"/>
<path d="M103.564 22.5C101.317 22.5 99.2863 22.0131 97.4723 21.0394C95.6789 20.0656 94.2669 18.7293 93.2362 17.0304C92.2261 15.3108 91.7211 13.384 91.7211 11.25C91.7211 9.11602 92.2261 7.19959 93.2362 5.50069C94.2669 3.78108 95.6789 2.43439 97.4723 1.46064C99.2863 0.486879 101.317 0 103.564 0C105.811 0 107.831 0.486879 109.624 1.46064C111.417 2.43439 112.83 3.78108 113.86 5.50069C114.891 7.19959 115.406 9.11602 115.406 11.25C115.406 13.384 114.891 15.3108 113.86 17.0304C112.83 18.7293 111.417 20.0656 109.624 21.0394C107.831 22.0131 105.811 22.5 103.564 22.5ZM103.564 18.2113C104.842 18.2113 105.996 17.9213 107.027 17.3412C108.057 16.7403 108.861 15.9116 109.439 14.855C110.036 13.7983 110.335 12.5967 110.335 11.25C110.335 9.90332 110.036 8.70166 109.439 7.64503C108.861 6.5884 108.057 5.77003 107.027 5.18992C105.996 4.58909 104.842 4.28868 103.564 4.28868C102.286 4.28868 101.131 4.58909 100.101 5.18992C99.0699 5.77003 98.2556 6.5884 97.6578 7.64503C97.0806 8.70166 96.7921 9.90332 96.7921 11.25C96.7921 12.5967 97.0806 13.7983 97.6578 14.855C98.2556 15.9116 99.0699 16.7403 100.101 17.3412C101.131 17.9213 102.286 18.2113 103.564 18.2113Z" fill="white"/>
<path d="M125.25 14.4199V22.1271H120.24V14.3577L111.861 0.372927H117.179L122.962 10.038L128.744 0.372927H133.66L125.25 14.4199Z" fill="white"/>
<path d="M143.326 17.4655H133.277L131.36 22.1271H126.227L135.875 0.372927H140.822L150.5 22.1271H145.244L143.326 17.4655ZM141.749 13.643L138.317 5.31423L134.885 13.643H141.749Z" fill="white"/>
<g opacity="0.5">
<path d="M56.8352 31.3759C57.3234 31.3759 57.7544 31.4745 58.1281 31.6717C58.5018 31.8688 58.7917 32.1685 58.9976 32.5707C59.2112 32.9729 59.318 33.4816 59.318 34.0968V37.7048H58.2196V34.2269C58.2196 33.6196 58.0823 33.1622 57.8077 32.8546C57.5332 32.5471 57.148 32.3933 56.6522 32.3933C56.2861 32.3933 55.9657 32.4722 55.6911 32.6299C55.4165 32.7876 55.203 33.0203 55.0504 33.3278C54.9055 33.6354 54.833 34.0179 54.833 34.4753V37.7048H53.7347V34.2269C53.7347 33.6196 53.5974 33.1622 53.3228 32.8546C53.0558 32.5471 52.6707 32.3933 52.1673 32.3933C51.8088 32.3933 51.4922 32.4722 51.2176 32.6299C50.943 32.7876 50.7295 33.0203 50.5769 33.3278C50.4244 33.6354 50.3481 34.0179 50.3481 34.4753V37.7048H49.2498V31.4351H50.3023V33.1031L50.1307 32.6772C50.3214 32.2671 50.6151 31.9477 51.0117 31.719C51.4083 31.4903 51.8698 31.3759 52.3961 31.3759C52.9758 31.3759 53.4754 31.5258 53.8949 31.8255C54.3144 32.1173 54.589 32.5628 54.7186 33.1622L54.2724 32.9729C54.4555 32.4919 54.7758 32.1054 55.2335 31.8136C55.6911 31.5218 56.2251 31.3759 56.8352 31.3759Z" fill="white"/>
<path d="M65.904 37.7048V36.3799L65.8468 36.1315V33.872C65.8468 33.3909 65.7095 33.0203 65.4349 32.76C65.1679 32.4919 64.7637 32.3578 64.2221 32.3578C63.8636 32.3578 63.5128 32.4209 63.1695 32.5471C62.8263 32.6654 62.5365 32.827 62.3 33.0321L61.8424 32.1804C62.1551 31.9201 62.5288 31.7229 62.9636 31.5889C63.406 31.4469 63.8674 31.3759 64.348 31.3759C65.1794 31.3759 65.8201 31.5849 66.2701 32.0029C66.7201 32.4209 66.9451 33.0597 66.9451 33.9193V37.7048H65.904ZM63.9132 37.7758C63.4632 37.7758 63.0666 37.6969 62.7233 37.5392C62.3877 37.3815 62.1284 37.1646 61.9453 36.8886C61.7623 36.6046 61.6707 36.2852 61.6707 35.9304C61.6707 35.5912 61.747 35.2837 61.8996 35.0076C62.0597 34.7316 62.3153 34.5108 62.6661 34.3452C63.0246 34.1796 63.5051 34.0968 64.1077 34.0968H66.0298V34.913H64.1535C63.6043 34.913 63.2344 35.0076 63.0437 35.1969C62.853 35.3862 62.7577 35.6149 62.7577 35.883C62.7577 36.1906 62.8759 36.439 63.1123 36.6283C63.3488 36.8097 63.6768 36.9004 64.0963 36.9004C64.5082 36.9004 64.8666 36.8058 65.1717 36.6165C65.4845 36.4272 65.7095 36.1512 65.8468 35.7884L66.0642 36.5692C65.9192 36.9398 65.6637 37.2356 65.2976 37.4564C64.9315 37.6693 64.47 37.7758 63.9132 37.7758Z" fill="white"/>
<path d="M70.671 36.1906L70.6939 34.7356L74.1834 31.4351H75.5106L72.8334 34.1559L72.2384 34.6764L70.671 36.1906ZM69.7786 37.7048V28.9272H70.8769V37.7048H69.7786ZM74.4123 37.7048L72.0325 34.6528L72.7419 33.7419L75.7623 37.7048H74.4123Z" fill="white"/>
<path d="M80.084 37.7758C79.4356 37.7758 78.8636 37.6378 78.3678 37.3617C77.8796 37.0857 77.4983 36.7072 77.2237 36.2261C76.9567 35.745 76.8232 35.193 76.8232 34.5699C76.8232 33.9469 76.9529 33.3949 77.2122 32.9138C77.4792 32.4327 77.8415 32.0581 78.2991 31.79C78.7644 31.514 79.2869 31.3759 79.8666 31.3759C80.4539 31.3759 80.9726 31.51 81.4226 31.7781C81.8726 32.0463 82.2234 32.4248 82.4752 32.9138C82.7345 33.3949 82.8642 33.9587 82.8642 34.6054C82.8642 34.6528 82.8603 34.708 82.8527 34.7711C82.8527 34.8341 82.8489 34.8933 82.8413 34.9485H77.6813V34.1322H82.2692L81.823 34.4162C81.8306 34.014 81.7505 33.6551 81.5827 33.3397C81.4149 33.0242 81.1823 32.7797 80.8848 32.6062C80.595 32.4248 80.2556 32.3341 79.8666 32.3341C79.4852 32.3341 79.1458 32.4248 78.8483 32.6062C78.5508 32.7797 78.3182 33.0281 78.1504 33.3515C77.9826 33.6669 77.8987 34.0297 77.8987 34.4398V34.6291C77.8987 35.0471 77.9902 35.4217 78.1733 35.7529C78.364 36.0763 78.6271 36.3286 78.9627 36.51C79.2983 36.6914 79.6835 36.7821 80.1183 36.7821C80.4768 36.7821 80.8009 36.719 81.0908 36.5928C81.3882 36.4666 81.6476 36.2774 81.8688 36.025L82.4752 36.7584C82.2006 37.0897 81.8573 37.342 81.4455 37.5155C81.0412 37.689 80.5874 37.7758 80.084 37.7758Z" fill="white"/>
<path d="M86.9293 37.7758C86.4258 37.7758 85.9453 37.7048 85.4877 37.5629C85.0377 37.4209 84.683 37.2474 84.4236 37.0423L84.8813 36.1433C85.1406 36.3247 85.461 36.4785 85.8423 36.6046C86.2237 36.7308 86.6127 36.7939 87.0093 36.7939C87.5204 36.7939 87.8865 36.719 88.1077 36.5692C88.3365 36.4193 88.4509 36.2103 88.4509 35.9422C88.4509 35.745 88.3823 35.5912 88.245 35.4808C88.1077 35.3704 87.9246 35.2876 87.6958 35.2324C87.4746 35.1772 87.2267 35.1299 86.9521 35.0905C86.6775 35.0431 86.403 34.9879 86.1284 34.9248C85.8538 34.8539 85.6021 34.7592 85.3733 34.6409C85.1444 34.5147 84.9614 34.3452 84.8241 34.1322C84.6868 33.9114 84.6181 33.6196 84.6181 33.2569C84.6181 32.8783 84.7211 32.5471 84.9271 32.2632C85.133 31.9793 85.4228 31.7624 85.7966 31.6125C86.178 31.4548 86.628 31.3759 87.1466 31.3759C87.5433 31.3759 87.9437 31.4272 88.348 31.5297C88.7598 31.6244 89.0954 31.7624 89.3548 31.9438L88.8857 32.8428C88.6111 32.6535 88.3251 32.5234 88.0276 32.4524C87.7301 32.3815 87.4327 32.346 87.1352 32.346C86.6547 32.346 86.2962 32.4288 86.0597 32.5944C85.8233 32.7521 85.7051 32.9572 85.7051 33.2095C85.7051 33.4225 85.7737 33.5881 85.911 33.7064C86.0559 33.8168 86.239 33.9035 86.4602 33.9666C86.689 34.0297 86.9407 34.0849 87.2153 34.1322C87.4899 34.1717 87.7645 34.2269 88.039 34.2979C88.3136 34.361 88.5615 34.4517 88.7827 34.5699C89.0115 34.6882 89.1946 34.8539 89.3319 35.0668C89.4768 35.2797 89.5493 35.5636 89.5493 35.9185C89.5493 36.2971 89.4425 36.6244 89.2289 36.9004C89.0154 37.1764 88.7141 37.3933 88.3251 37.551C87.9361 37.7009 87.4708 37.7758 86.9293 37.7758Z" fill="white"/>
<path d="M95.5963 37.7048V31.4351H96.6946V37.7048H95.5963ZM96.1455 30.2285C95.9319 30.2285 95.7527 30.1575 95.6077 30.0155C95.4704 29.8736 95.4018 29.7001 95.4018 29.495C95.4018 29.2821 95.4704 29.1046 95.6077 28.9627C95.7527 28.8207 95.9319 28.7498 96.1455 28.7498C96.359 28.7498 96.5345 28.8207 96.6718 28.9627C96.8167 29.0968 96.8891 29.2663 96.8891 29.4714C96.8891 29.6843 96.8205 29.8657 96.6832 30.0155C96.5459 30.1575 96.3667 30.2285 96.1455 30.2285Z" fill="white"/>
<path d="M101.675 37.7758C101.065 37.7758 100.592 37.6062 100.256 37.2671C99.9206 36.928 99.7528 36.443 99.7528 35.8121V30.0628H100.851V35.7647C100.851 36.1039 100.931 36.3641 101.091 36.5455C101.259 36.7269 101.496 36.8176 101.801 36.8176C102.144 36.8176 102.43 36.719 102.659 36.5218L103.002 37.3381C102.834 37.4879 102.632 37.5983 102.396 37.6693C102.167 37.7403 101.927 37.7758 101.675 37.7758ZM98.7231 32.3696V31.4351H102.59V32.3696H98.7231Z" fill="white"/>
<path d="M110.743 37.7758C110.24 37.7758 109.759 37.7048 109.302 37.5629C108.852 37.4209 108.497 37.2474 108.238 37.0423L108.695 36.1433C108.955 36.3247 109.275 36.4785 109.657 36.6046C110.038 36.7308 110.427 36.7939 110.824 36.7939C111.335 36.7939 111.701 36.719 111.922 36.5692C112.151 36.4193 112.265 36.2103 112.265 35.9422C112.265 35.745 112.196 35.5912 112.059 35.4808C111.922 35.3704 111.739 35.2876 111.51 35.2324C111.289 35.1772 111.041 35.1299 110.766 35.0905C110.492 35.0431 110.217 34.9879 109.943 34.9248C109.668 34.8539 109.416 34.7592 109.187 34.6409C108.959 34.5147 108.776 34.3452 108.638 34.1322C108.501 33.9114 108.432 33.6196 108.432 33.2569C108.432 32.8783 108.535 32.5471 108.741 32.2632C108.947 31.9793 109.237 31.7624 109.611 31.6125C109.992 31.4548 110.442 31.3759 110.961 31.3759C111.357 31.3759 111.758 31.4272 112.162 31.5297C112.574 31.6244 112.91 31.7624 113.169 31.9438L112.7 32.8428C112.425 32.6535 112.139 32.5234 111.842 32.4524C111.544 32.3815 111.247 32.346 110.949 32.346C110.469 32.346 110.11 32.4288 109.874 32.5944C109.637 32.7521 109.519 32.9572 109.519 33.2095C109.519 33.4225 109.588 33.5881 109.725 33.7064C109.87 33.8168 110.053 33.9035 110.274 33.9666C110.503 34.0297 110.755 34.0849 111.029 34.1322C111.304 34.1717 111.579 34.2269 111.853 34.2979C112.128 34.361 112.376 34.4517 112.597 34.5699C112.826 34.6882 113.009 34.8539 113.146 35.0668C113.291 35.2797 113.363 35.5636 113.363 35.9185C113.363 36.2971 113.257 36.6244 113.043 36.9004C112.83 37.1764 112.528 37.3933 112.139 37.551C111.75 37.7009 111.285 37.7758 110.743 37.7758Z" fill="white"/>
<path d="M115.537 37.7048V31.4351H116.635V37.7048H115.537ZM116.086 30.2285C115.873 30.2285 115.693 30.1575 115.548 30.0155C115.411 29.8736 115.342 29.7001 115.342 29.495C115.342 29.2821 115.411 29.1046 115.548 28.9627C115.693 28.8207 115.873 28.7498 116.086 28.7498C116.3 28.7498 116.475 28.8207 116.612 28.9627C116.757 29.0968 116.83 29.2663 116.83 29.4714C116.83 29.6843 116.761 29.8657 116.624 30.0155C116.487 30.1575 116.307 30.2285 116.086 30.2285Z" fill="white"/>
<path d="M127.119 31.3759C127.607 31.3759 128.038 31.4745 128.412 31.6717C128.785 31.8688 129.075 32.1685 129.281 32.5707C129.495 32.9729 129.602 33.4816 129.602 34.0968V37.7048H128.503V34.2269C128.503 33.6196 128.366 33.1622 128.091 32.8546C127.817 32.5471 127.432 32.3933 126.936 32.3933C126.57 32.3933 126.249 32.4722 125.975 32.6299C125.7 32.7876 125.487 33.0203 125.334 33.3278C125.189 33.6354 125.117 34.0179 125.117 34.4753V37.7048H124.018V34.2269C124.018 33.6196 123.881 33.1622 123.606 32.8546C123.339 32.5471 122.954 32.3933 122.451 32.3933C122.092 32.3933 121.776 32.4722 121.501 32.6299C121.227 32.7876 121.013 33.0203 120.861 33.3278C120.708 33.6354 120.632 34.0179 120.632 34.4753V37.7048H119.533V31.4351H120.586V33.1031L120.414 32.6772C120.605 32.2671 120.899 31.9477 121.295 31.719C121.692 31.4903 122.153 31.3759 122.68 31.3759C123.259 31.3759 123.759 31.5258 124.178 31.8255C124.598 32.1173 124.873 32.5628 125.002 33.1622L124.556 32.9729C124.739 32.4919 125.059 32.1054 125.517 31.8136C125.975 31.5218 126.509 31.3759 127.119 31.3759Z" fill="white"/>
<path d="M135.638 37.7758C135.135 37.7758 134.674 37.6575 134.254 37.4209C133.842 37.1764 133.51 36.8176 133.259 36.3444C133.015 35.8712 132.893 35.2797 132.893 34.5699C132.893 33.8602 133.011 33.2687 133.247 32.7955C133.491 32.3223 133.819 31.9674 134.231 31.7308C134.651 31.4942 135.12 31.3759 135.638 31.3759C136.233 31.3759 136.76 31.51 137.217 31.7781C137.675 32.0463 138.037 32.4209 138.304 32.902C138.571 33.3752 138.705 33.9311 138.705 34.5699C138.705 35.2087 138.571 35.7687 138.304 36.2498C138.037 36.7308 137.675 37.1054 137.217 37.3736C136.76 37.6417 136.233 37.7758 135.638 37.7758ZM132.423 39.9998V31.4351H133.476V33.1267L133.407 34.5818L133.522 36.0368V39.9998H132.423ZM135.547 36.7821C135.936 36.7821 136.283 36.6914 136.588 36.51C136.901 36.3286 137.145 36.0723 137.32 35.7411C137.503 35.402 137.595 35.0116 137.595 34.5699C137.595 34.1204 137.503 33.734 137.32 33.4106C137.145 33.0794 136.901 32.8231 136.588 32.6417C136.283 32.4603 135.936 32.3696 135.547 32.3696C135.165 32.3696 134.818 32.4603 134.506 32.6417C134.201 32.8231 133.957 33.0794 133.773 33.4106C133.598 33.734 133.51 34.1204 133.51 34.5699C133.51 35.0116 133.598 35.402 133.773 35.7411C133.957 36.0723 134.201 36.3286 134.506 36.51C134.818 36.6914 135.165 36.7821 135.547 36.7821Z" fill="white"/>
<path d="M141.023 37.7048V28.9272H142.121V37.7048H141.023Z" fill="white"/>
<path d="M147.72 37.7758C147.071 37.7758 146.499 37.6378 146.003 37.3617C145.515 37.0857 145.134 36.7072 144.859 36.2261C144.592 35.745 144.459 35.193 144.459 34.5699C144.459 33.9469 144.588 33.3949 144.848 32.9138C145.115 32.4327 145.477 32.0581 145.935 31.79C146.4 31.514 146.922 31.3759 147.502 31.3759C148.089 31.3759 148.608 31.51 149.058 31.7781C149.508 32.0463 149.859 32.4248 150.111 32.9138C150.37 33.3949 150.5 33.9587 150.5 34.6054C150.5 34.6528 150.496 34.708 150.488 34.7711C150.488 34.8341 150.484 34.8933 150.477 34.9485H145.317V34.1322H149.905L149.459 34.4162C149.466 34.014 149.386 33.6551 149.218 33.3397C149.051 33.0242 148.818 32.7797 148.52 32.6062C148.231 32.4248 147.891 32.3341 147.502 32.3341C147.121 32.3341 146.781 32.4248 146.484 32.6062C146.186 32.7797 145.954 33.0281 145.786 33.3515C145.618 33.6669 145.534 34.0297 145.534 34.4398V34.6291C145.534 35.0471 145.626 35.4217 145.809 35.7529C146 36.0763 146.263 36.3286 146.598 36.51C146.934 36.6914 147.319 36.7821 147.754 36.7821C148.112 36.7821 148.437 36.719 148.726 36.5928C149.024 36.4666 149.283 36.2774 149.504 36.025L150.111 36.7584C149.836 37.0897 149.493 37.342 149.081 37.5155C148.677 37.689 148.223 37.7758 147.72 37.7758Z" fill="white"/>
</g>
</svg>
