<svg width="25" height="24" viewBox="0 0 25 24" fill="none" xmlns="http://www.w3.org/2000/svg">
<path d="M22.5 11.0699V16.6499C22.5 19.5999 20.1 21.9999 17.15 21.9999H7.85C4.9 21.9999 2.5 19.5999 2.5 16.6499V9.43994H22.24C22.39 9.88994 22.47 10.3499 22.49 10.8399C22.5 10.9099 22.5 10.9999 22.5 11.0699Z" fill="#677389"/>
<path opacity="0.4" d="M22.24 9.44H2.5V6.42C2.5 3.98 4.48 2 6.92 2H9.25C10.88 2 11.39 2.53 12.04 3.4L13.44 5.26C13.75 5.67 13.79 5.73 14.37 5.73H17.16C19.53 5.72 21.55 7.28 22.24 9.44Z" fill="#677389"/>
</svg>
